<svg width="14" height="14" viewBox="0 0 14 14" fill="none" xmlns="http://www.w3.org/2000/svg">
<path d="M0.724149 0.0530578C0.640449 0.0111952 0.54668 -0.00633676 0.453509 0.00245632C0.360338 0.0112494 0.271505 0.0460145 0.197115 0.102797C0.122724 0.15958 0.0657633 0.2361 0.0327109 0.323654C-0.000341587 0.411208 -0.00815856 0.506281 0.0101492 0.598058L1.41315 5.44806C1.43931 5.53844 1.49044 5.61961 1.56067 5.68223C1.6309 5.74485 1.71737 5.78638 1.81015 5.80206L7.50015 6.75506C7.76815 6.80806 7.76815 7.19206 7.50015 7.24506L1.81015 8.19806C1.71737 8.21373 1.6309 8.25527 1.56067 8.31789C1.49044 8.38051 1.43931 8.46168 1.41315 8.55206L0.0101492 13.4021C-0.00815856 13.4938 -0.000341587 13.5889 0.0327109 13.6765C0.0657633 13.764 0.122724 13.8405 0.197115 13.8973C0.271505 13.9541 0.360338 13.9889 0.453509 13.9977C0.54668 14.0065 0.640449 13.9889 0.724149 13.9471L13.7241 7.44706C13.8071 7.40549 13.8768 7.34166 13.9256 7.26272C13.9743 7.18378 14.0001 7.09283 14.0001 7.00006C14.0001 6.90728 13.9743 6.81634 13.9256 6.7374C13.8768 6.65845 13.8071 6.59463 13.7241 6.55306L0.724149 0.0530578Z" fill="#377DFF"/>
</svg>
