<svg width="24" height="22" viewBox="0 0 24 22" fill="none" xmlns="http://www.w3.org/2000/svg">
<path d="M6.74999 8.75C5.9203 8.75 5.24999 9.41562 5.24999 10.2078C5.24999 11.0797 5.9203 11.75 6.74999 11.75C7.57967 11.75 8.2078 11.082 8.2078 10.25C8.2078 9.41797 7.58436 8.75 6.74999 8.75ZM12 8.70781C11.168 8.70781 10.5422 9.37578 10.5422 10.2078C10.5422 11.0398 11.2101 11.6656 12 11.6656C12.7898 11.6656 13.4578 10.9977 13.4578 10.2078C13.4578 9.41797 12.8344 8.70781 12 8.70781ZM17.25 8.75C16.4179 8.75 15.7922 9.41797 15.7922 10.25C15.7922 11.082 16.4601 11.75 17.25 11.75C18.082 11.75 18.7495 11.082 18.7495 10.25C18.75 9.41562 18.0844 8.75 17.25 8.75ZM12 0.457813C5.37186 0.457813 0.0421767 4.82281 0.0421767 10.2078C0.0421767 12.44 0.975458 14.4852 2.52233 16.1281C1.8253 17.9797 0.372177 19.5444 0.348739 19.5617C0.0382392 19.8898 -0.0437451 20.3703 0.131989 20.7805C0.272708 21.2281 0.674051 21.5 1.12499 21.5C4.00733 21.5 6.23905 20.293 7.6453 19.332C8.99858 19.7539 10.4653 20 12 20C18.6281 20 23.9578 15.6345 23.9578 10.2922C23.9578 4.94984 18.6281 0.457813 12 0.457813ZM12 17.75C10.7461 17.75 9.50998 17.5566 8.32686 17.1819L7.26045 16.8479L6.34686 17.4922C5.67889 17.9666 4.75921 18.4944 3.65202 18.8516C3.99767 18.2834 4.32561 17.6445 4.58342 16.9648L5.08124 15.6523L4.11467 14.6272C3.27233 13.7234 2.2528 12.2281 2.2528 10.25C2.2528 6.11328 6.62342 2.75 11.9606 2.75C17.2978 2.75 21.6684 6.11328 21.6684 10.25C21.6684 14.3867 17.3812 17.75 12 17.75Z" fill="#606165"/>
</svg>
