<svg width="22" height="22" viewBox="0 0 22 22" fill="none" xmlns="http://www.w3.org/2000/svg">
<path d="M11 0.998047C16.524 0.998047 21.002 5.47605 21.002 11C21.002 16.523 16.524 21 11 21C5.47599 21.001 0.997986 16.523 0.997986 11C0.997986 5.47605 5.47599 0.998047 11 0.998047ZM11 2.49805C9.87579 2.48585 8.76035 2.69675 7.7182 3.11852C6.67606 3.54029 5.72792 4.16457 4.92865 4.95521C4.12938 5.74586 3.49486 6.68718 3.06181 7.72469C2.62876 8.7622 2.40578 9.87529 2.40578 10.9995C2.40578 12.1238 2.62876 13.2369 3.06181 14.2744C3.49486 15.3119 4.12938 16.2532 4.92865 17.0439C5.72792 17.8345 6.67606 18.4588 7.7182 18.8806C8.76035 19.3023 9.87579 19.5132 11 19.501C13.2388 19.4768 15.3776 18.5704 16.9521 16.9787C18.5266 15.387 19.4098 13.2384 19.4098 10.9995C19.4098 8.76065 18.5266 6.61211 16.9521 5.02041C15.3776 3.42871 13.2388 2.52233 11 2.49805ZM7.46199 13.783C7.88289 14.3188 8.42015 14.7518 9.0331 15.0493C9.64606 15.3468 10.3187 15.5009 11 15.5C11.6806 15.5009 12.3524 15.347 12.9648 15.0501C13.5772 14.7532 14.1141 14.3209 14.535 13.786C14.5961 13.7088 14.6717 13.6443 14.7577 13.5962C14.8437 13.5482 14.9383 13.5176 15.0362 13.5061C15.134 13.4946 15.2331 13.5026 15.3279 13.5294C15.4226 13.5562 15.5112 13.6015 15.5885 13.6625C15.6658 13.7236 15.7303 13.7993 15.7783 13.8853C15.8263 13.9713 15.857 14.0659 15.8684 14.1637C15.8799 14.2615 15.872 14.3607 15.8451 14.4554C15.8183 14.5502 15.7731 14.6388 15.712 14.716C15.1507 15.4286 14.435 16.0045 13.6187 16.4001C12.8025 16.7958 11.9071 17.0009 11 17C10.0917 17.0008 9.19522 16.795 8.3782 16.3983C7.56118 16.0016 6.84506 15.4243 6.28399 14.71C6.22042 14.633 6.17289 14.544 6.14419 14.4483C6.11549 14.3526 6.1062 14.2521 6.11686 14.1528C6.12752 14.0534 6.15793 13.9572 6.20628 13.8698C6.25464 13.7824 6.31998 13.7055 6.39846 13.6437C6.47694 13.5819 6.56698 13.5363 6.6633 13.5098C6.75961 13.4832 6.86026 13.4762 6.95933 13.4891C7.05841 13.502 7.1539 13.5345 7.24022 13.5848C7.32654 13.6352 7.40194 13.7022 7.46199 13.782V13.783ZM7.99999 7.75005C8.16705 7.74532 8.33336 7.77414 8.48909 7.83481C8.64481 7.89548 8.7868 7.98676 8.90663 8.10325C9.02647 8.21975 9.12173 8.35909 9.18678 8.51304C9.25182 8.66699 9.28534 8.83242 9.28534 8.99955C9.28534 9.16667 9.25182 9.33211 9.18678 9.48606C9.12173 9.64001 9.02647 9.77935 8.90663 9.89584C8.7868 10.0123 8.64481 10.1036 8.48909 10.1643C8.33336 10.225 8.16705 10.2538 7.99999 10.249C7.67472 10.2398 7.36586 10.1042 7.13904 9.87084C6.91223 9.63752 6.78534 9.32495 6.78534 8.99955C6.78534 8.67415 6.91223 8.36157 7.13904 8.12825C7.36586 7.89493 7.67472 7.75925 7.99999 7.75005ZM14 7.75005C14.167 7.74532 14.3334 7.77414 14.4891 7.83481C14.6448 7.89548 14.7868 7.98676 14.9066 8.10325C15.0265 8.21975 15.1217 8.35909 15.1868 8.51304C15.2518 8.66699 15.2853 8.83242 15.2853 8.99955C15.2853 9.16667 15.2518 9.33211 15.1868 9.48606C15.1217 9.64001 15.0265 9.77935 14.9066 9.89584C14.7868 10.0123 14.6448 10.1036 14.4891 10.1643C14.3334 10.225 14.167 10.2538 14 10.249C13.6747 10.2398 13.3659 10.1042 13.139 9.87084C12.9122 9.63752 12.7853 9.32495 12.7853 8.99955C12.7853 8.67415 12.9122 8.36157 13.139 8.12825C13.3659 7.89493 13.6747 7.75925 14 7.75005Z" fill="#606165" stroke="#606165" stroke-width="0.6"/>
</svg>
